<mxfile host="65bd71144e" modified="2021-01-31T08:01:45.288Z" agent="5.0 (Windows NT 10.0; Win64; x64) AppleWebKit/537.36 (KHTML, like Gecko) Code/1.52.1 Chrome/83.0.4103.122 Electron/9.3.5 Safari/537.36" etag="B4LryUH4nkI8X0VVCArJ" version="13.10.0" type="embed">
    <diagram id="Qjc5WshdWJCUdloOd8M6" name="Page-1">
        <mxGraphModel dx="2108" dy="944" grid="0" gridSize="10" guides="1" tooltips="1" connect="1" arrows="1" fold="1" page="0" pageScale="1" pageWidth="827" pageHeight="1169" background="#114B5F" math="0" shadow="0">
            <root>
                <mxCell id="0"/>
                <mxCell id="1" parent="0"/>
                <mxCell id="11" value="Todo" style="rounded=0;whiteSpace=wrap;html=1;strokeColor=#028090;fillColor=#F45B69;fontColor=#E4FDE1;" parent="1" vertex="1">
                    <mxGeometry x="44" y="302" width="120" height="60" as="geometry"/>
                </mxCell>
                <mxCell id="12" value="TodoForm" style="rounded=0;whiteSpace=wrap;html=1;strokeColor=#028090;fillColor=#F45B69;fontColor=#E4FDE1;" vertex="1" parent="1">
                    <mxGeometry x="-183" y="302" width="120" height="60" as="geometry"/>
                </mxCell>
                <mxCell id="19" style="edgeStyle=orthogonalEdgeStyle;rounded=0;orthogonalLoop=1;jettySize=auto;html=1;exitX=0.25;exitY=1;exitDx=0;exitDy=0;entryX=0.5;entryY=0;entryDx=0;entryDy=0;" edge="1" parent="1" source="14" target="18">
                    <mxGeometry relative="1" as="geometry"/>
                </mxCell>
                <mxCell id="20" style="edgeStyle=orthogonalEdgeStyle;rounded=0;orthogonalLoop=1;jettySize=auto;html=1;exitX=0.5;exitY=1;exitDx=0;exitDy=0;entryX=0.5;entryY=0;entryDx=0;entryDy=0;" edge="1" parent="1" source="14" target="15">
                    <mxGeometry relative="1" as="geometry"/>
                </mxCell>
                <mxCell id="21" style="edgeStyle=orthogonalEdgeStyle;rounded=0;orthogonalLoop=1;jettySize=auto;html=1;exitX=0.75;exitY=1;exitDx=0;exitDy=0;entryX=0.5;entryY=0;entryDx=0;entryDy=0;" edge="1" parent="1" source="14" target="16">
                    <mxGeometry relative="1" as="geometry"/>
                </mxCell>
                <mxCell id="14" value="App" style="rounded=0;whiteSpace=wrap;html=1;strokeColor=#028090;fillColor=#F45B69;fontColor=#E4FDE1;" vertex="1" parent="1">
                    <mxGeometry x="254" y="459" width="120" height="60" as="geometry"/>
                </mxCell>
                <mxCell id="15" value="completeTodo" style="rounded=0;whiteSpace=wrap;html=1;strokeColor=#028090;fillColor=#F45B69;fontColor=#E4FDE1;" vertex="1" parent="1">
                    <mxGeometry x="254" y="654" width="120" height="60" as="geometry"/>
                </mxCell>
                <mxCell id="16" value="removeTodo" style="rounded=0;whiteSpace=wrap;html=1;strokeColor=#028090;fillColor=#F45B69;fontColor=#E4FDE1;" vertex="1" parent="1">
                    <mxGeometry x="429" y="651" width="120" height="60" as="geometry"/>
                </mxCell>
                <mxCell id="18" value="addTodo" style="rounded=0;whiteSpace=wrap;html=1;strokeColor=#028090;fillColor=#F45B69;fontColor=#E4FDE1;" vertex="1" parent="1">
                    <mxGeometry x="87" y="651" width="120" height="60" as="geometry"/>
                </mxCell>
            </root>
        </mxGraphModel>
    </diagram>
</mxfile>